<?xml version="1.0" encoding="utf-8"?>
<!-- Generator: Adobe Illustrator 21.1.0, SVG Export Plug-In . SVG Version: 6.00 Build 0)  -->
<svg version="1.1" id="Calque_1" xmlns="http://www.w3.org/2000/svg" xmlns:xlink="http://www.w3.org/1999/xlink" x="0px" y="0px"
	 viewBox="0 0 100 100" style="enable-background:new 0 0 100 100;" xml:space="preserve">
<style type="text/css">
	.st0{fill:#FFFFFF;}
	.st1{fill:#1E56A3;}
	.st2{fill:#706F6F;}
	.st3{fill:#EC9A02;}
	.st4{fill:#2058A4;}
</style>
<g>
	<path class="st0" d="M35,53.8c-3,0-5.4,0-7.8,0c-7,0-13.7-5-15.6-11.8c-1.4-5.1-1.7-10.3,0-15.4c2-5.9,6.3-9.1,12.2-10.4
		c1.8-0.4,3.7-0.5,5.6-0.6c0.6,0,0.8,0.2,0.8,0.8c0,3.3,0,6.6,0,9.8c0,0.5-0.1,0.7-0.7,0.8c-0.9,0.1-1.9,0.2-2.8,0.4
		c-2.8,0.8-4.5,2.8-5.2,5.6c-0.8,3,0.1,5.5,2.1,7.8c0.7,0.7,1.6,0.9,2.6,0.9c7.6,0,15.3,0,22.9,0c7.6,0,17.1,5,18.1,16.4
		c0.6,6.4-0.9,12.3-5.6,16.9c-3.1,3-7,4.5-11.2,5.1c-1.5,0.2-2.9,0.3-4.4,0.4c-0.8,0.1-1.1-0.1-1.1-1c0.1-2.6,0.1-5.2,0-7.7
		c0-0.8,0.3-1.1,0.9-1.3c2.6-1,4.9-2.5,6.6-4.8c1.8-2.5,2-5.2,1.3-8c-0.3-1.2-1.3-1.9-2.4-2.4c-1.8-0.9-3.7-1.2-5.6-1.3
		C41.9,53.7,38.2,53.9,35,53.8z"/>
	<path class="st0" d="M54.6,3.8c6.3,10.6,12.4,21,18.5,31.5c-0.3,0.3-0.6,0.2-0.9,0.2c-3.8,0-7.6,0-11.4,0c-0.7,0-1.1-0.2-1.5-0.8
		c-1.5-2.7-3.1-5.3-4.8-8.1c-1.4,2.4-2.9,4.6-4.1,6.9c-0.8,1.5-1.7,2.1-3.5,2c-3.6-0.2-7.2-0.1-11.1-0.1
		C42.2,24.9,48.3,14.5,54.6,3.8z"/>
	<path class="st0" d="M71.4,59.3c1.7,0,3.5,0,5.2,0c2.1,0,4.2,0,6.3,0c0.5,0,0.9,0,1.2,0.5c2,3.5,4.1,6.9,6.2,10.5
		c-1.3,0-2.5,0-3.7,0c-2.8,0-5.7,0-8.5,0c-0.5,0-0.9,0-1.1-0.5c-1.8-3.4-3.7-6.8-5.5-10.2C71.4,59.6,71.4,59.5,71.4,59.3z"/>
	<path class="st0" d="M34,59.3c-2.2,3.7-4.2,7.1-6.3,10.6c-0.2,0.4-0.5,0.4-0.9,0.4c-3.9,0-7.8,0-11.7,0c-0.1-0.5,0.3-0.8,0.4-1.2
		c1.6-3,3.3-6,4.9-9c0.2-0.5,0.4-0.8,1.1-0.8C25.6,59.4,29.7,59.3,34,59.3z"/>
	<path class="st0" d="M50.3,91.6c1,0.7,1.4,1.6,1,2.8c-0.4,1.2-1.3,1.7-2.5,1.8c-2.1,0.1-4.1,0-6.2,0c-0.5,0-0.7-0.2-0.7-0.7
		c0-2.5,0-5,0-7.5c0-0.7,0.4-0.7,0.9-0.7c1.9,0,3.8,0,5.7,0c1.1,0,2.1,0.3,2.6,1.4C51.5,89.6,51.2,90.5,50.3,91.6z M43.5,91.6
		c0,0.9,0,1.7,0,2.4c0,0.4,0,0.7,0.5,0.7c1.6-0.1,3.1,0.1,4.7-0.1c0.7-0.1,1.2-0.4,1.1-1.2c-0.1-0.8-0.7-1-1.4-1c-1,0-2,0-3,0
		c-0.6,0-0.8-0.1-0.8-0.8c0-0.6,0.3-0.7,0.8-0.7c1.1,0,2.2,0,3.3,0c0.6,0,1-0.3,1-0.9c0.1-0.6-0.2-1-0.9-1.2
		c-0.8-0.2-1.5-0.2-2.3-0.1c-1,0-2.2-0.4-2.8,0.2C43.1,89.5,43.6,90.8,43.5,91.6z"/>
	<path class="st0" d="M26.4,93.6c0.8,0.8,1.6,1.6,2.4,2.4c-1.2,0.3-2.3,0.2-3-0.9c-0.9-1.4-2.2-1.4-3.6-1.3c-0.5,0-1,0.2-1-0.7
		c0-0.8,0.5-0.7,1-0.7c0.9,0,1.9,0,2.8,0c1.1,0,1.5-0.6,1.6-1.6c0.1-1.1-0.3-1.8-1.4-1.9c-1.5-0.1-3,0-4.6-0.1
		c-0.6,0-0.5,0.5-0.5,0.8c0,1.9,0,3.8,0,5.7c0,0.6-0.1,0.8-0.8,0.8c-0.6,0-0.9-0.1-0.9-0.8c0-2.4,0-4.8,0-7.2c0-0.7,0.2-0.9,0.9-0.9
		c1.8,0,3.6,0,5.4,0c1.7,0,2.7,0.6,3.2,1.9c0.6,1.6,0.2,3.1-1,4.1C26.7,93.4,26.5,93.5,26.4,93.6z"/>
	<path class="st0" d="M60.2,96.1c-1,0-2,0-3,0c-0.6,0-0.7-0.2-0.7-0.8c0-0.6,0.2-0.8,0.7-0.7c1.7,0,3.4,0,5.1,0c0.3,0,0.7,0,1-0.1
		c0.6-0.1,1.1-0.5,1-1.2c-0.1-0.7-0.6-1-1.2-1c-1.3,0-2.6,0-3.9,0c-1.9,0-2.9-0.9-2.9-2.6c0-1.7,1-2.6,2.9-2.6c1.8,0,3.5,0,5.3,0
		c0.5,0,0.9,0,0.9,0.7c0,0.7-0.3,0.8-0.8,0.8c-1.7,0-3.4,0-5,0c-0.8,0-1.5,0.1-1.5,1.2c0,1.1,0.7,1.1,1.5,1.1c1.2,0,2.5,0,3.7,0
		c1.7,0,2.6,0.9,2.6,2.5c0,1.6-0.9,2.6-2.6,2.7C62.2,96.2,61.2,96.1,60.2,96.1z"/>
	<path class="st0" d="M72.3,96.1c-3.2,0-4.8-1.2-5.3-3.7c-0.5-2.8,1.4-5.1,4.2-5.2c0.9,0,1.8-0.1,2.7,0c2.4,0.3,3.9,2.1,3.8,4.8
		c-0.1,2.3-1.9,4.1-4.2,4.1C73.1,96.1,72.7,96.1,72.3,96.1z M72.4,94.7c1.5,0.1,2.9-0.2,3.6-1.8c0.5-1.2,0.3-2.4-0.6-3.2
		c-1.5-1.3-3.4-1-5.1-0.6c-1,0.3-1.6,1.2-1.7,2.3C68.3,93.5,69.6,94.7,72.4,94.7z"/>
	<path class="st0" d="M40.8,96c-1.4,0.5-2.1-0.1-2.6-1.2c-0.3-0.8-0.8-1.1-1.7-1c-1,0.1-1.9,0-2.9,0c0.5-1.9,2-0.9,3.2-1.3
		c-0.6-1-1.1-2-1.8-3.1c-1.1,1.9-2.2,3.7-3.3,5.5c-0.9,1.5-0.5,1.3-2.5,1.3c1.2-2.1,2.4-4.1,3.6-6.1c0.5-0.8,0.9-1.6,1.4-2.3
		c0.5-0.7,1.1-0.8,1.6,0C37.4,90.4,39.1,93.2,40.8,96z"/>
	<path class="st0" d="M17.3,96c-1.3,0.4-2.1,0-2.5-1.1c-0.3-0.9-0.9-1.2-1.9-1.1c-0.9,0.1-1.8,0-2.8,0c0.5-1.9,2.1-0.8,3.1-1.4
		c-0.5-0.9-1.1-1.9-1.8-3.1c-1.1,1.9-2.3,3.7-3.2,5.5c-0.6,1-1.2,1.6-2.5,1.2c1-1.7,2-3.4,3.1-5.2c0.6-1.1,1.3-2.2,1.9-3.2
		c0.5-0.7,1.1-0.8,1.6,0C14,90.4,15.6,93.2,17.3,96z"/>
	<path class="st0" d="M91.9,87.2c1.1,0,2.3,0,3.4,0c0.5,0,0.8,0.1,0.8,0.7c0,0.6-0.1,0.8-0.8,0.8c-0.8,0-2-0.4-2.4,0.2
		c-0.4,0.6-0.2,1.7-0.2,2.6c0,1.3,0,2.6,0,3.9c0,0.6-0.2,0.8-0.7,0.7c-0.5,0-0.9,0-0.9-0.7c0-1.8,0-3.7,0-5.5c0-1-0.3-1.3-1.3-1.2
		c-0.4,0.1-0.9,0-1.3,0c-0.7,0.1-0.9-0.2-0.9-0.8c0-0.7,0.4-0.7,0.9-0.7C89.7,87.2,90.8,87.2,91.9,87.2z"/>
	<path class="st0" d="M79.1,91.7c0-1.2,0-2.5,0-3.7c0-0.5,0.1-0.8,0.7-0.7c2.1,0,4.1,0,6.2,0c0.6,0,0.6,0.2,0.6,0.7
		c0,0.5,0,0.8-0.7,0.8c-1.5,0-3,0-4.4,0c-0.7,0-0.9,0.2-0.9,0.9c0,1.9,0,3.8,0,5.7c0,0.5,0,0.9-0.7,0.8c-0.6,0-0.9-0.1-0.9-0.8
		C79.2,94.1,79.1,92.9,79.1,91.7z"/>
	<path class="st0" d="M84.1,92.4c-0.5,0-1,0-1.5,0c-0.5,0-0.8,0-0.8-0.7c0-0.6,0.2-0.8,0.8-0.8c1,0,2,0,3,0c0.5,0,0.7,0.2,0.7,0.7
		c0,0.5-0.1,0.8-0.7,0.8C85.1,92.4,84.6,92.4,84.1,92.4z"/>
</g>
</svg>
